<?xml version="1.0" encoding="iso-8859-1"?>
<!-- Generator: Adobe Illustrator 19.0.0, SVG Export Plug-In . SVG Version: 6.00 Build 0)  -->
<svg version="1.1" id="Layer_1" xmlns="http://www.w3.org/2000/svg" xmlns:xlink="http://www.w3.org/1999/xlink" x="0px" y="0px"
	 viewBox="0 0 512 512" style="enable-background:new 0 0 512 512;" xml:space="preserve">
<g>
	<g>
		<path d="M497.457,213.545c-0.01-0.435-0.03-0.868-0.066-1.296c-0.025-0.29-0.057-0.58-0.092-0.869
			c-0.046-0.368-0.102-0.731-0.167-1.091c-0.065-0.357-0.141-0.713-0.225-1.068c-0.068-0.288-0.141-0.575-0.219-0.86
			c-0.117-0.41-0.248-0.818-0.391-1.225c-0.05-0.141-0.083-0.281-0.135-0.422l-36.12-96.323h-22.107h-24.451H98.519H74.067H51.96
			l-36.121,96.322c-0.052,0.141-0.086,0.281-0.135,0.422c-0.143,0.407-0.273,0.816-0.389,1.225c-0.081,0.284-0.153,0.571-0.221,0.86
			c-0.086,0.356-0.16,0.712-0.225,1.068c-0.065,0.36-0.121,0.723-0.167,1.091c-0.036,0.29-0.069,0.58-0.092,0.869
			c-0.036,0.429-0.057,0.861-0.066,1.296c-0.003,0.145-0.022,0.288-0.022,0.436v82.793c0,11.43,9.267,20.698,20.698,20.698h20.698
			v91.038v82.793c0,11.43,9.267,20.698,20.698,20.698h206.982h151.787c11.431,0,20.698-9.269,20.698-20.698v-173.83h20.698
			c11.431,0,20.698-9.269,20.698-20.698v-82.793C497.479,213.833,497.46,213.691,497.457,213.545z M97.314,317.472h165.585v70.339
			H97.314V317.472z M262.899,470.604H97.314v-41.396h165.586V470.604z M414.686,470.604h-110.39v-62.095v-91.038h110.39V470.604z"/>
	</g>
</g>
<g>
	<g>
		<path d="M393.988,0H118.012c-11.431,0-20.698,9.267-20.698,20.698v48.296h20.698h20.698H373.29h20.698h20.698V20.698
			C414.686,9.267,405.419,0,393.988,0z"/>
	</g>
</g>
<g>
</g>
<g>
</g>
<g>
</g>
<g>
</g>
<g>
</g>
<g>
</g>
<g>
</g>
<g>
</g>
<g>
</g>
<g>
</g>
<g>
</g>
<g>
</g>
<g>
</g>
<g>
</g>
<g>
</g>
</svg>
